<svg xmlns="http://www.w3.org/2000/svg" width="121" fill="none" viewBox="0 0 145 32"><path fill="#05224D" d="M10.838 21.35c4.846 0 6.73-2.934 6.73-7.967 0-5.032-2.214-8.53-6.583-8.53H6.071V21.35h4.767ZM.908.463H11.62c6.81 0 11.178 5.45 11.178 12.92 0 4.108-1.384 7.719-4.063 9.953a11.392 11.392 0 0 1-7.547 2.45H.907V.462Zm36.645 16.25c0-3.544-1.68-5.948-4.63-5.948-2.951 0-4.63 2.404-4.63 5.947 0 3.544 1.634 5.913 4.63 5.913s4.63-2.37 4.63-5.913Zm-14.175 0A9.185 9.185 0 0 1 24 13.006a9.225 9.225 0 0 1 2.055-3.152 9.288 9.288 0 0 1 3.148-2.077 9.33 9.33 0 0 1 3.72-.657 9.33 9.33 0 0 1 3.72.657 9.287 9.287 0 0 1 3.147 2.077 9.225 9.225 0 0 1 2.055 3.152c.46 1.18.672 2.441.622 3.705a9.195 9.195 0 0 1-.622 3.707 9.236 9.236 0 0 1-2.054 3.154 9.3 9.3 0 0 1-3.148 2.08 9.342 9.342 0 0 1-3.72.663 9.341 9.341 0 0 1-3.72-.663 9.299 9.299 0 0 1-3.148-2.08A9.236 9.236 0 0 1 24 20.42a9.195 9.195 0 0 1-.622-3.707Zm19.884 0c0-5.417 3.563-9.592 9.079-9.592 4.744 0 7.66 2.72 8.296 6.657h-4.699a3.381 3.381 0 0 0-1.184-2.022 3.417 3.417 0 0 0-2.22-.776c-2.917 0-4.415 2.257-4.415 5.732 0 3.476 1.385 5.744 4.347 5.744a3.417 3.417 0 0 0 2.471-.789 3.379 3.379 0 0 0 1.194-2.292h4.665c-.318 3.86-3.405 6.94-8.228 6.94-5.765 0-9.363-4.186-9.363-9.603m30.2 9.028v-2.042h-.103a5.855 5.855 0 0 1-2.267 2.013 5.895 5.895 0 0 1-2.976.616c-4.051 0-6.333-2.584-6.333-6.557V7.617h4.801v11.284c0 2.122.965 3.296 3.03 3.296 2.27 0 3.666-1.704 3.666-4.108V7.617h4.857v18.168l-4.675-.045Zm28.259 0h4.902V7.617h-4.846l-.056 18.123Zm0-20.707h4.902V.519h-4.846l-.056 4.514Zm19.633 10.822c0-2.652-1.43-4.92-4.346-4.92-2.452 0-4.097 1.907-4.097 4.954 0 3.046 1.645 4.886 4.131 4.886 3.064 0 4.312-2.257 4.312-4.92Zm-12.722 10.46h4.801c.397 1.129 1.418 2.02 3.665 2.02 2.747 0 4.063-1.309 4.063-3.791v-1.975h-.102a5.903 5.903 0 0 1-2.14 1.615 5.94 5.94 0 0 1-2.638.506c-4.063 0-8.046-3.182-8.046-8.677 0-5.496 3.28-8.881 7.944-8.881a5.909 5.909 0 0 1 2.832.565 5.871 5.871 0 0 1 2.218 1.838h.034V7.617h4.665v16.78a7.062 7.062 0 0 1-2.168 5.53 9.615 9.615 0 0 1-6.582 2.053c-4.994 0-8.058-2.133-8.546-5.642m24.117-16.25h.102a5.923 5.923 0 0 1 2.297-2.246 5.963 5.963 0 0 1 3.139-.721c3.779 0 6.299 2.832 6.299 6.77v11.894h-4.835V14.67a3.032 3.032 0 0 0-1.883-3.165 3.066 3.066 0 0 0-1.295-.22c-2.133 0-3.7 1.704-3.7 4.175v10.314h-4.846V7.617h4.744l-.022 2.471Zm-41.992.43c-3.779-.813-5.56-1.411-5.56-3.476 0-1.806 1.815-2.968 4.596-2.968 2.53 0 4.471 1.185 4.868 3.543h4.971C99.053 2.697 95.387 0 89.758 0c-5.629 0-9.76 2.584-9.76 7.583 0 5.27 4.165 6.477 8.728 7.504 3.881.88 6.298 1.377 6.298 3.86 0 2.482-2.27 3.26-4.948 3.26-3.631 0-5.38-1.207-5.674-4.253h-5.107c.17 5.348 4.085 8.395 10.997 8.395 5.674 0 9.896-2.866 9.896-8 0-5.462-4.267-6.692-9.499-7.832"></path></svg>