<svg xmlns="http://www.w3.org/2000/svg" width="91" fill="none" viewBox="0 0 91 29"><path fill-rule="evenodd" clip-rule="evenodd" d="M79.8883 15.3024C79.8883 12.1784 82.2024 10.3658 85.095 10.3658C87.2548 10.3658 89.1832 11.4071 90.1088 13.9911C89.8388 15.3024 88.2189 16.7679 87.5248 16.9994C86.9463 15.7653 86.2906 15.0324 85.6735 15.0324C84.9022 15.0324 84.8636 15.5724 84.8636 16.2666C84.8636 16.7583 85.0044 17.4824 85.1738 18.3538C85.4296 19.6699 85.7506 21.322 85.7506 23.0159C85.7506 26.1013 83.5909 28.3769 80.274 28.3769C77.2369 28.3769 75.5586 26.3858 74.8099 23.2051C72.8259 26.7604 69.9246 28.3769 67.7011 28.3769C64.2248 28.3769 63.4066 25.8074 63.4891 23.2012C62.0923 25.6698 59.4035 28.3769 56.825 28.3769C54.1927 28.3769 53.2629 26.0857 53.4762 23.4174C51.8991 26.3551 49.0462 28.3769 46.296 28.3769C43.3116 28.3769 41.8345 26.006 42.3125 23.0674C40.3048 25.5352 36.5674 28.3769 32.6817 28.3769C28.2512 28.3769 26.3227 25.9877 26.0942 22.994C23.9558 26.4212 21.0735 28.4925 17.6403 28.4925C12.6844 28.4925 10.9118 24.0854 10.6538 20.4805C8.81706 22.9401 6.75205 25.492 4.21886 28.3382C3.94889 28.6082 3.71748 28.7624 3.44751 28.7624C2.56046 28.7624 0.747783 24.8286 0.63208 23.363C1.39326 22.1819 6.19142 16.9102 10.0544 12.6659C11.4123 11.174 12.6547 9.80907 13.5655 8.79335C11.1997 9.50723 8.76045 10.931 5.68443 13.1427C5.14449 13.5284 3.64035 10.0187 3.67892 7.31894C7.22714 4.69634 12.6266 3.03794 16.9847 3.03794C23.0784 3.03794 26.588 6.43189 26.588 11.1371C26.588 15.071 23.3098 19.3906 18.5274 19.5449C16.0407 19.6094 14.447 18.2136 13.6319 16.4898C13.7293 19.1557 15.1154 22.4374 18.836 22.4374C22.892 22.4374 24.8397 19.989 27.7445 16.3375C27.9332 16.1002 28.126 15.858 28.3235 15.611C30.7919 12.5641 33.6459 9.86439 37.8112 9.86439C40.3567 9.86439 42.0922 11.4457 42.0922 13.8369C42.0922 16.7294 38.6982 20.7404 33.9545 20.7404C33.1442 20.7404 32.4057 20.6336 31.7823 20.4227C31.7666 20.5443 31.7561 20.664 31.7561 20.779C31.7561 22.1289 32.2575 22.9388 34.4559 22.9388C37.6955 22.9388 40.7423 21.0104 44.4448 16.498C48.0702 12.0627 50.8084 10.1344 53.701 10.1344C55.6536 10.1344 57.1356 11.1926 57.7887 12.9749C61.6653 7.37586 64.954 3.40873 67.7396 0.762451C70.4779 1.91948 72.4448 4.19497 71.9049 4.65777C69.8608 6.50901 63.0344 13.9526 60.3346 18.3878C59.6404 19.5449 58.9848 20.8175 58.9848 21.4346C58.9848 22.0132 59.3319 22.206 59.7176 22.206C61.5708 22.206 65.2844 17.8311 68.4918 14.0527C69.6898 12.6413 70.8172 11.3131 71.7506 10.3272C73.9105 11.2143 76.1087 13.104 75.5688 13.7597C72.7148 17.1536 70.5551 19.9306 70.5551 21.5118C70.5551 21.936 70.7093 22.206 71.2878 22.206C72.3678 22.206 73.3704 21.2418 75.0289 19.1977C75.376 18.7735 75.8002 18.7735 76.0702 19.4292C76.803 21.2032 77.8829 22.1675 78.7314 22.1675C79.7341 22.1675 80.2355 21.2804 80.2355 19.9306C80.2355 19.008 80.1229 17.9355 80.026 17.0119C79.9528 16.3138 79.8883 15.7009 79.8883 15.3024ZM17.679 14.801C19.723 14.801 21.96 13.6826 21.96 11.4071C21.96 10.0262 21.1029 8.75308 18.8125 8.36541C18.6916 8.55421 18.5716 8.74185 18.4524 8.9284C17.2885 10.7478 16.1909 12.4639 15.0832 14.1413C15.7469 14.5141 16.5863 14.801 17.679 14.801ZM38.3512 15.4953C38.3512 14.8782 37.9655 14.454 37.3484 14.454C35.8011 14.454 33.4672 16.6254 32.3689 18.7223C32.7743 18.879 33.2502 18.9663 33.7616 18.9663C36.4999 18.9663 38.3512 16.8837 38.3512 15.4953ZM48.4944 21.0876C48.4944 21.7818 48.88 22.2445 49.69 22.2445C52.1969 22.2445 55.3209 17.6937 55.3209 15.8423C55.3209 15.071 54.8967 14.6082 54.2024 14.6082C51.927 14.6082 48.4944 18.9278 48.4944 21.0876ZM80.6978 7.16485C79.8108 8.63041 78.4609 10.2888 77.9595 10.7902C75.6455 9.826 73.4857 7.89763 73.7942 7.35767C74.6427 5.85355 76.0312 4.23371 76.5325 3.73233C78.8465 4.69652 81.0064 6.66346 80.6978 7.16485Z" fill="#05224D"></path></svg>