<svg xmlns="http://www.w3.org/2000/svg" width="143" viewBox="0 0 143 36" fill="none"><g clip-path="url(#clip0_1079_5714)"><path d="M0.601563 26.0142L5.6853 22.0806C8.38625 25.6412 11.2559 27.2824 14.45 27.2824C17.6271 27.2824 20.4156 25.6606 22.9948 22.1279L28.1511 25.9668C24.4296 31.0608 19.8049 33.7523 14.45 33.7523C9.11219 33.7523 4.44266 31.0781 0.601563 26.0142Z" fill="#05224D"></path><path d="M14.4336 8.91742L5.38487 16.7935L1.20215 11.8936L14.4528 0.359863L27.5987 11.9022L23.3969 16.7849L14.4336 8.91742Z" fill="#05224D"></path><path fill-rule="evenodd" clip-rule="evenodd" d="M64.8323 8.26295C64.8323 9.96671 66.0621 11.2089 67.749 11.2089V11.2111C69.3802 11.2111 70.6398 9.96671 70.6398 8.26295C70.6398 6.61527 69.3802 5.37305 67.749 5.37305C66.1198 5.37305 64.8323 6.61527 64.8323 8.26295ZM62.9774 6.5288V28.5783H57.9427V6.5288H62.9774ZM47.6453 28.8967C44.5562 28.8965 41.9816 27.885 39.8937 25.8623C37.8056 23.8114 36.7764 21.1824 36.7764 17.9733C36.7764 14.7384 37.8333 12.0792 39.9214 9.99802C42.0395 7.88886 44.6145 6.84936 47.6762 6.84936C51.4533 6.84936 54.7991 8.49488 56.7462 11.0678L53.3386 14.6801C51.7074 12.916 49.9331 12.0209 48.0178 12.0209C46.3866 12.0209 45.0415 12.5688 43.9248 13.6967C42.838 14.8246 42.2957 16.2415 42.2957 17.9453C42.2957 19.593 42.838 20.9797 43.9248 22.1076C45.0415 23.2053 46.3866 23.7531 47.9879 23.7531C50.0761 23.7531 51.9081 22.8279 53.4241 21.0077L56.9726 24.4475C55.999 25.748 54.6837 26.8177 53.0525 27.6544C51.4216 28.4933 49.6199 28.8965 47.6453 28.8967ZM70.2958 12.6254V28.5781H65.2312V12.6254H70.2958ZM73.9263 26.5834C75.4977 28.1447 77.5006 28.9255 79.9901 28.9255C83.338 28.9255 86.1692 27.2777 87.5442 24.6186L83.5087 22.1924C82.9366 23.4347 81.5915 24.2434 80.1331 24.2434C78.1005 24.2434 76.5845 22.682 76.5845 20.5728C76.5668 19.6155 76.9271 18.6905 77.5859 18.0021C78.2734 17.3076 79.1318 16.9604 80.1908 16.9604C81.6491 16.9604 82.7658 17.6548 83.5664 19.0135L87.5997 16.8741C86.2567 13.8397 83.3658 12.2222 80.0755 12.2222C77.5582 12.2222 75.5276 13.0008 73.9541 14.5622C72.3805 16.1236 71.6076 18.1164 71.6076 20.5728C71.6076 23.0292 72.3805 25.0241 73.9263 26.5834ZM105.104 28.5783H99.0944L94.4287 22.2486L93.6861 22.943V28.5783H88.6536V6.5288H93.6878V17.2495L98.4365 12.6256H104.588L97.8094 19.0417L105.104 28.5783ZM105.442 7.22145V20.2842C105.442 26.5838 109.791 28.954 114.168 28.954C118.573 28.954 122.895 26.5838 122.895 20.2842V7.22145H117.487V20.1979C117.487 22.5379 116.113 23.7521 114.168 23.7521C112.194 23.7521 110.82 22.5962 110.82 20.1979V7.22145H105.442ZM134.848 12.2222C137.109 12.2222 138.941 13.031 140.399 14.6485C141.857 16.2379 142.572 18.2328 142.572 20.5728C142.572 22.9149 141.829 24.9077 140.371 26.5553C138.911 28.1728 137.081 28.9837 134.878 28.9837C133.131 28.9837 131.615 28.4057 130.385 27.2497V35.1387H125.32V12.6256H130.3V14.1007C131.53 12.8563 133.046 12.2222 134.848 12.2222ZM133.876 16.961C135.937 16.961 137.422 18.5505 137.422 20.6316H137.425C137.437 21.5973 137.077 22.53 136.421 23.2325C135.763 23.955 134.905 24.3022 133.876 24.3022C132.845 24.3022 131.986 23.955 131.301 23.2325C130.641 22.5101 130.3 21.6431 130.3 20.6316C130.3 18.5505 131.815 16.961 133.876 16.961Z" fill="#05224D"></path></g><defs><clipPath id="clip0_1079_5714"><rect width="142" height="35.2795" fill="#05224D" transform="translate(0.601562 0.360352)"></rect></clipPath></defs></svg>