<svg xmlns="http://www.w3.org/2000/svg" width="175" fill="none" viewBox="0 0 175 18"><g clip-path="url(#a)"><path fill="#05224D" d="M95.55 0c-6.17 0-9.367 3.792-9.367 8.895 0 5.102 3.198 8.929 9.366 8.929 6.169 0 9.367-3.844 9.367-8.93 0-5.085-3.198-8.894-9.367-8.894Zm53.401 0c-5.242 0-7.828 2.08-7.828 5.75 0 2.97 1.747 4.368 5.33 4.752l4.001.437c1.521.175 2.219.752 2.219 1.52 0 .77-1.013 1.643-3.494 1.643-2.831 0-3.967-.716-4.159-2.15h-4.142c.192 3.897 2.726 5.89 8.178 5.89 4.963 0 7.741-2.185 7.741-5.47a4.648 4.648 0 0 0-.284-1.887 4.663 4.663 0 0 0-4.469-3.04l-3.949-.455c-2.289-.245-2.866-.821-2.866-1.608 0-.786 1.171-1.642 3.495-1.642s3.373.82 3.495 2.079h4.246c-.139-3.6-3.127-5.819-7.514-5.819ZM52.3.402v10.974c0 4.893 4.351 6.413 8.02 6.413 3.67 0 7.969-1.52 7.969-6.413V.402h-4.316v10.485c.017 2.201-1.328 3.093-3.652 3.093-2.325 0-3.705-.927-3.705-3.093V.402H52.3Zm-36.277.07L.907 9.856v7.618h.123l15.167-9.436h7.864a.472.472 0 0 1 .472.472.384.384 0 0 1-.227.385L16.86 13.28a1.52 1.52 0 0 0-.646 1.31v2.883h9.471V1.049a.575.575 0 0 0-.611-.576h-9.052Zm23.643 0-6.483 17.002h4.42l1.137-3.162h7.252l1.135 3.162h4.614L45.17.473h-5.505Zm30.615 0v3.67h5.452v13.332h4.316V4.141h5.452V.471h-15.22Zm36.994 0v17.002h7.916c6.063 0 7.741-2.254 7.741-8.597 0-5.941-1.608-8.335-7.741-8.335l-7.916-.07Zm18.068 0v17.002h13.613v-3.722h-9.279v-3.075h7.532V6.99h-7.532V4.14h9.279V.471h-13.613Zm33.656 0v17.002h4.299v-6.5l5.854 6.5h5.47l-7.882-8.422 7.882-8.58h-5.138l-6.169 6.867V.472h-4.316Zm-63.45 3.337a4.596 4.596 0 0 1 4.963 5.086 4.962 4.962 0 1 1-9.908 0 4.614 4.614 0 0 1 4.945-5.086Zm-53.122.175 2.341 6.64H40.05l2.377-6.64Zm69.146.157h3.495c2.709 0 3.495.734 3.495 4.666 0 3.6-.908 4.945-3.495 4.945h-3.495v-9.61Z"></path></g><defs><clipPath id="a"><path fill="#fff" d="M.907 0h173.714v17.841H.907z"></path></clipPath></defs></svg>