<svg xmlns="http://www.w3.org/2000/svg" width="104" viewBox="0 0 104 24" fill="none"><path d="M84.3292 3.11011H80.4649L73.9017 16.2585L67.3599 3.11011H63.5557C67.6598 11.3521 73.936 23.9798 73.936 23.9798L84.3292 3.11011Z" fill="#05224D"></path><path d="M54.3461 6.2219C57.5506 6.2219 60.2495 8.44701 60.9865 11.4426H47.7058C48.4426 8.45134 51.1416 6.2219 54.3461 6.2219ZM54.3461 19.9643C51.1416 19.9643 48.4426 17.7392 47.7058 14.748H64.4823V13.0953C64.4823 7.48292 59.9368 2.9165 54.3461 2.9165C48.7554 2.9165 44.21 7.48292 44.21 13.0953C44.21 18.7076 48.7596 23.2741 54.3461 23.2741C58.1889 23.2741 61.599 21.1307 63.317 17.8382H59.2985C58.0389 19.1594 56.2739 19.9643 54.3461 19.9643Z" fill="#05224D"></path><path d="M93.4657 20.0376C89.6917 20.0376 86.6241 16.9517 86.6241 13.1685C86.6241 9.38537 89.6963 6.29948 93.4657 6.29948C97.2361 6.29948 100.239 9.32083 100.303 13.0566V13.2847C100.243 17.0205 97.2011 20.0418 93.4657 20.0418M103.602 13.1728C103.602 13.1383 103.602 13.0997 103.602 13.0566V3.1662H100.308V5.67541C98.5039 4.01406 96.1091 2.98975 93.4703 2.98975C87.8836 2.98975 83.334 7.55617 83.334 13.1685C83.334 18.7808 87.8836 23.3473 93.4703 23.3473C96.1045 23.3473 98.4993 22.3229 100.308 20.6617V23.188H103.602V13.2804C103.602 13.2416 103.602 13.203 103.602 13.1685" fill="#05224D"></path><path d="M31.8572 6.2219C35.0617 6.2219 37.7564 8.44701 38.4975 11.4426H25.2126C25.9538 8.45134 28.6485 6.2219 31.8572 6.2219ZM31.8572 19.9643C28.6485 19.9643 25.9538 17.7392 25.2126 14.748H41.9891V13.0953C41.9891 7.48292 37.4437 2.9165 31.8529 2.9165C26.2622 2.9165 21.7168 7.48292 21.7168 13.0953C21.7168 18.7076 26.2622 23.2741 31.8529 23.2741C35.6914 23.2741 39.1016 21.1307 40.8195 17.8382H36.801C35.5458 19.1594 33.7765 19.9643 31.8529 19.9643" fill="#05224D"></path><path d="M0.601562 0.0200195H4.67143L12.4213 15.6604L20.1155 0.0200195H24.1084L12.3785 23.9498L0.601562 0.0200195Z" fill="#05224D"></path><path d="M7.06055 0.0625839L12.36 10.6804L17.6508 0.0625839C17.6508 0.0625839 7.06055 0.0453664 7.06055 0.0625839Z" fill="#05224D"></path></svg>