<svg xmlns="http://www.w3.org/2000/svg" width="127" viewBox="0 0 127 30" fill="none"><g clip-path="url(#clip0_1079_5733)"><path d="M3.96174 8.34313C2.40755 8.34313 1.15705 9.63326 1.21064 11.2102C1.26424 12.6437 2.42542 13.8083 3.85456 13.8621C5.42661 13.9158 6.71284 12.6615 6.71284 11.1027V10.0812C6.71284 9.11364 7.481 8.34313 8.44567 8.34313H9.42821C10.9288 8.34313 12.1793 7.1605 12.215 5.67324C12.2686 4.11431 11.0181 2.84208 9.48181 2.82416C7.94548 2.80625 6.71284 4.0964 6.71284 5.6374V6.7842C6.71284 7.6443 6.01614 8.34313 5.15865 8.34313H3.96174Z" fill="#05224D"></path><path d="M6.71284 18.8974C6.71284 17.3384 5.42661 16.0841 3.85456 16.1379C2.42542 16.1916 1.26424 17.3564 1.21064 18.7899C1.15705 20.3667 2.40755 21.6569 3.96174 21.6569H4.98001C5.94468 21.6569 6.71284 22.4274 6.71284 23.395V24.3805C6.71284 25.8857 7.89189 27.14 9.37462 27.1759C10.9288 27.2296 12.1972 25.9752 12.215 24.4342C12.2329 22.8932 10.9467 21.6569 9.41034 21.6569H8.26703C7.40954 21.6569 6.71284 20.9581 6.71284 20.0979V18.8974Z" fill="#05224D"></path><path d="M11.411 22.4632C10.3035 21.3522 8.51704 21.388 7.44518 22.5349C6.48051 23.592 6.48051 25.2405 7.44518 26.2799C8.51704 27.4267 10.3035 27.4625 11.411 26.3515L12.1256 25.6348C12.8044 24.9539 13.8942 24.9539 14.5731 25.6348L15.2697 26.3336C16.3237 27.3908 18.0387 27.4445 19.1285 26.4232C20.2539 25.3481 20.2896 23.5742 19.1999 22.4811C18.128 21.388 16.3416 21.406 15.2697 22.499L14.4658 23.3054C13.8585 23.9146 12.876 23.9146 12.2685 23.3054L11.411 22.4632Z" fill="#05224D"></path><path d="M17.2343 21.6564C15.68 21.6564 14.4295 22.9465 14.4831 24.5234C14.5368 25.9569 15.6979 27.1215 17.127 27.1753C18.6991 27.229 19.9853 25.9747 19.9853 24.4159V23.3944C19.9853 22.4269 20.7535 21.6564 21.7181 21.6564H22.7007C24.2013 21.6564 25.4518 20.4737 25.4875 18.9864C25.5411 17.4275 24.2906 16.1552 22.7543 16.1374C21.2179 16.1194 19.9853 17.4096 19.9853 18.9506V20.0974C19.9853 20.9575 19.2886 21.6564 18.4312 21.6564H17.2343Z" fill="#05224D"></path><path d="M2.01391 16.9615C0.906331 18.0725 0.942059 19.8644 2.08537 20.9395C3.13936 21.9071 4.78288 21.9071 5.819 20.9395C6.96232 19.8644 6.99805 18.0725 5.89046 16.9615L5.1759 16.2447C4.49705 15.5639 4.49705 14.4708 5.1759 13.7899L5.8726 13.0911C6.92659 12.0339 6.98018 10.3137 5.96192 9.22062C4.89007 8.09174 3.1215 8.0559 2.03178 9.14895C0.94206 10.2241 0.959924 12.0159 2.04965 13.0911L2.85353 13.8974C3.46092 14.5067 3.46092 15.4922 2.85353 16.1014L2.01391 16.9615Z" fill="#05224D"></path><path d="M20.7893 16.9615C19.6817 18.0725 19.7174 19.8644 20.8608 20.9395C21.9148 21.9071 23.5583 21.9071 24.5945 20.9395C25.7377 19.8644 25.7735 18.0725 24.6659 16.9615L23.9513 16.2447C23.2724 15.5639 23.2724 14.4708 23.9513 13.7899L24.648 13.0911C25.702 12.0339 25.7556 10.3137 24.7373 9.22062C23.6655 8.09174 21.897 8.0559 20.8072 9.14895C19.7174 10.2241 19.7354 12.0159 20.8251 13.0911L21.6289 13.8974C22.2363 14.5067 22.2363 15.4922 21.6289 16.1014L20.7893 16.9615Z" fill="#05224D"></path><path d="M17.2345 8.34294C18.7538 8.34294 19.9855 7.10748 19.9855 5.58346C19.9855 4.05944 18.7538 2.82397 17.2345 2.82397C15.715 2.82397 14.4834 4.05944 14.4834 5.58346C14.4834 7.10748 15.715 8.34294 17.2345 8.34294Z" fill="#05224D"></path><path d="M40.5657 26.4404C38.029 26.4404 36.0103 25.7058 34.5097 24.2543C33.0091 22.785 32.2588 20.6706 32.2588 17.8753V12.9656C32.2588 10.1881 33.0091 8.0558 34.5097 6.58647C36.0103 5.11714 38.029 4.40039 40.5657 4.40039C43.0845 4.40039 45.0139 5.09922 46.3537 6.49688C47.6935 7.89454 48.3724 9.81185 48.3724 12.2309V12.3742H45.6213V12.1592C45.6213 10.6182 45.2104 9.36388 44.3887 8.37835C43.5669 7.39282 42.2807 6.89109 40.5657 6.89109C38.8329 6.89109 37.4752 7.42865 36.5105 8.48585C35.528 9.54307 35.0457 11.0303 35.0457 12.9118V17.9291C35.0457 19.8105 35.528 21.2798 36.5105 22.3549C37.493 23.4301 38.8329 23.9676 40.5657 23.9676C42.2985 23.9676 43.5669 23.4659 44.3887 22.4804C45.2104 21.4949 45.6213 20.2226 45.6213 18.6996V18.2157H48.3724V18.6099C48.3724 21.0289 47.6935 22.9463 46.3537 24.3439C45.0139 25.7416 43.0845 26.4404 40.5657 26.4404Z" fill="#05224D"></path><path d="M72.7207 26.0285V4.83057H85.8153V7.33918H75.4719V14.1304H84.7255V16.639H75.4719V23.5018H85.976V26.0105H72.7207V26.0285Z" fill="#05224D"></path><path d="M65.6297 4.83057L60.2704 14.5783H59.5737L54.2501 4.83057H51.0703L58.5376 18.0905V26.0285H61.3065V18.0905L68.7559 4.83057H65.6297Z" fill="#05224D"></path><path d="M120.008 4.83057H114.953L108.593 26.0105H111.451L112.987 20.7782H121.937L123.509 26.0105H126.35L120.008 4.83057ZM113.702 18.2517L116.935 7.3571H118.025L121.258 18.2517H113.702Z" fill="#05224D"></path><path d="M93.5872 17.4275V26.0285H90.8359V4.83057H99.4648C100.768 4.83057 101.929 5.0635 102.912 5.51147C103.913 5.95944 104.681 6.60452 105.253 7.4467C105.824 8.28888 106.092 9.29233 106.092 10.457V10.7975C106.092 12.1772 105.77 13.2523 105.109 14.0587C104.449 14.865 103.681 15.4205 102.769 15.7252V16.1552H103.466C104.913 16.1552 106.074 17.3378 106.074 18.7893V26.0285H103.323V19.1655C103.323 18.2158 102.555 17.4275 101.59 17.4275H93.5872ZM93.5872 14.9188H99.1964C100.501 14.9188 101.519 14.5963 102.251 13.9512C102.984 13.3061 103.341 12.4102 103.341 11.2634V11.0483C103.341 9.88368 102.984 8.96979 102.287 8.32472C101.59 7.67964 100.554 7.3571 99.2146 7.3571H93.6053V14.9188H93.5872Z" fill="#05224D"></path></g><defs><clipPath id="clip0_1079_5733"><rect width="126" height="29.0072" fill="#05224D" transform="translate(0.601562 0.496338)"></rect></clipPath></defs></svg>