<?xml version="1.0" encoding="utf-8"?>
<!-- Generator: Adobe Illustrator 24.0.2, SVG Export Plug-In . SVG Version: 6.00 Build 0)  -->
<svg version="1.1" id="Layer_1" xmlns="http://www.w3.org/2000/svg" xmlns:xlink="http://www.w3.org/1999/xlink" x="0px" y="0px"
	 viewBox="0 0 370.2 107.8" style="enable-background:new 0 0 370.2 107.8;" xml:space="preserve">
<style type="text/css">
	.st0{clip-path:url(#SVGID_2_);}
	.st1{fill:#1D3FAB;}
	.st2{clip-path:url(#SVGID_4_);}
</style>
<title>logo</title>
<g>
	<defs>
		<rect id="SVGID_1_" width="108" height="108"/>
	</defs>
	<clipPath id="SVGID_2_">
		<use xlink:href="#SVGID_1_"  style="overflow:visible;"/>
	</clipPath>
	<g class="st0">
		<path class="st1" d="M91.9,39.3c6.8-6.8,6.8-17.9,0-24.7s-17.9-6.8-24.7,0c-6.8,6.8-6.8,17.9,0,24.7
			C74.1,46.1,85.1,46.1,91.9,39.3z M16.2,66.4c-6.8,6.8-6.8,17.9,0,24.7c6.8,6.8,17.9,6.8,24.7,0c6.8-6.8,6.8-17.9,0-24.7
			C34.1,59.6,23.1,59.6,16.2,66.4z M53.9,53.9v53.9c29.8,0,53.9-24.1,53.9-53.9L53.9,53.9z M53.9,53.9H0C0,24.1,24.1,0,53.9,0l0,0
			l0,0L53.9,53.9z"/>
	</g>
</g>
<g>
	<defs>
		<rect id="SVGID_3_" x="-0.8" y="-88.4" width="375" height="375"/>
	</defs>
	<clipPath id="SVGID_4_">
		<use xlink:href="#SVGID_3_"  style="overflow:visible;"/>
	</clipPath>
	<g class="st2">
		<path class="st1" d="M144.7,61.8c-2.5,2.1-6.1,3.1-10.8,3.1s-8.3-1-10.8-3.1c-2.5-2.1-3.8-5.3-3.8-9.7v-0.5H130v0.4
			c-0.1,1.2,0.2,2.4,0.9,3.4c1.6,1.4,3.9,1.4,5.5,0c0.7-1,1-2.2,0.9-3.4V29.2h11.3v22.9C148.5,56.5,147.2,59.8,144.7,61.8z"/>
		<path class="st1" d="M177.8,64.3l-1.5-5H164l-1.5,5H151l12.8-35.1h13.1l12.8,35.1H177.8z M166.4,51.6h7.6L170.2,39h-0.2
			L166.4,51.6z"/>
		<path class="st1" d="M218,31.3c2.8,1.7,4.5,4.8,4.4,8.1V40h-10.6v-0.2c0-1-0.4-1.9-1.1-2.5c-1-0.8-2.2-1.1-3.4-1
			c-1.2-0.1-2.4,0.2-3.4,0.7c-0.7,0.3-1.1,0.9-1.2,1.6c0.1,1,0.7,1.8,1.6,2c1.7,0.6,3.5,1.1,5.2,1.4c2.4,0.5,4.7,1.1,7,1.8
			c1.8,0.6,3.5,1.7,4.8,3.1c1.4,1.6,2.2,3.7,2.1,5.8c0,4.2-1.4,7.2-4.2,9.2c-2.8,2-6.6,3-11.3,3c-5.5,0-9.7-0.9-12.8-2.8
			c-3-1.8-4.6-5.1-4.6-9.8h10.6c0,1.8,0.5,3,1.4,3.5c1.3,0.7,2.8,1,4.3,0.9c1.2,0,2.4-0.1,3.6-0.5c0.9-0.2,1.4-1,1.4-1.9
			c0-0.9-0.7-1.7-1.6-1.9c-1.6-0.6-3.3-1-5.1-1.3c-2.4-0.5-4.8-1.1-7.1-1.9c-1.9-0.7-3.6-1.8-4.9-3.3c-1.5-1.7-2.2-4-2.1-6.2
			c0-3.8,1.5-6.7,4.5-8.5c3.4-1.9,7.4-2.9,11.3-2.7C210.8,28.4,214.7,29.4,218,31.3z"/>
		<path class="st1" d="M247.4,38.2v26.1h-11.3V38.2h-11.5v-9h34.3v9H247.4z"/>
		<path class="st1" d="M262.3,29.2h30.4v8.4h-19.1v4.8h16.3v8.2h-16.3v5.4H293v8.4h-30.7V29.2z"/>
		<path class="st1" d="M326.5,32.5c3,2.6,4.5,6.3,4.5,11.2h-10.8c0.1-1.8-0.5-3.5-1.6-4.8c-2.8-2.5-7-2.4-9.6,0.3
			c-1.2,1.8-1.7,3.9-1.6,6v3.3c-0.1,2.1,0.4,4.2,1.6,6c1.2,1.5,3,2.3,4.9,2.2c1.8,0.1,3.6-0.5,5-1.7c1.2-1.3,1.8-3,1.7-4.8h10.4
			c0,4.8-1.5,8.5-4.4,11c-2.9,2.6-7.1,3.8-12.5,3.8c-6,0-10.5-1.5-13.6-4.6s-4.6-7.6-4.6-13.6c0-6,1.5-10.5,4.6-13.6
			c3.1-3.1,7.6-4.6,13.5-4.7C319.3,28.6,323.4,29.9,326.5,32.5z"/>
		<path class="st1" d="M359,64.3V51h-12.4v13.3h-11.3V29.2h11.3V42h12.4V29.2h11.3v35.1H359z"/>
	</g>
</g>
</svg>
